{
    "asset" : {
        "generator" : "Khronos glTF Blender I/O v1.6.16",
        "version" : "2.0"
    },
    "scene" : 0,
    "scenes" : [
        {
            "name" : "Scene",
            "nodes" : [
                0,
                1,
                2,
                3
            ]
        }
    ],
    "nodes" : [
        {
            "name" : "Light",
            "rotation" : [
                0.16907575726509094,
                0.7558803558349609,
                -0.27217137813568115,
                0.570947527885437
            ],
            "translation" : [
                4.076245307922363,
                5.903861999511719,
                -1.0054539442062378
            ]
        },
        {
            "name" : "Camera",
            "rotation" : [
                0.483536034822464,
                0.33687159419059753,
                -0.20870360732078552,
                0.7804827094078064
            ],
            "translation" : [
                7.358891487121582,
                4.958309173583984,
                6.925790786743164
            ]
        },
        {
            "mesh" : 0,
            "name" : "Landscape.004"
        },
        {
            "name" : "Empty",
            "translation" : [
                0,
                0.08946096897125244,
                0
            ]
        }
    ],
    "meshes" : [
        {
            "name" : "Landscape.004",
            "primitives" : [
                {
                    "attributes" : {
                        "POSITION" : 0,
                        "NORMAL" : 1
                    },
                    "indices" : 2
                }
            ]
        }
    ],
    "accessors" : [
        {
            "bufferView" : 0,
            "componentType" : 5126,
            "count" : 17780,
            "max" : [
                12.345913887023926,
                0.6433629393577576,
                14.574801445007324
            ],
            "min" : [
                -14.194421768188477,
                -4.2336015701293945,
                -14.157596588134766
            ],
            "type" : "VEC3"
        },
        {
            "bufferView" : 1,
            "componentType" : 5126,
            "count" : 17780,
            "type" : "VEC3"
        },
        {
            "bufferView" : 2,
            "componentType" : 5123,
            "count" : 104586,
            "type" : "SCALAR"
        }
    ],
    "bufferViews" : [
        {
            "buffer" : 0,
            "byteLength" : 213360,
            "byteOffset" : 0
        },
        {
            "buffer" : 0,
            "byteLength" : 213360,
            "byteOffset" : 213360
        },
        {
            "buffer" : 0,
            "byteLength" : 209172,
            "byteOffset" : 426720
        }
    ],
    "buffers" : [
        {
            "byteLength" : 635892,
            "uri" : "data:application/octet-stream;base64,"
        }
    ]
}
