{
    "asset" : {
        "generator" : "Khronos glTF Blender I/O v1.6.16",
        "version" : "2.0"
    },
    "scene" : 0,
    "scenes" : [
        {
            "name" : "Scene",
            "nodes" : [
                16,
                17,
                18
            ]
        }
    ],
    "nodes" : [
        {
            "mesh" : 0,
            "name" : "keyboard 1_Material.001_0"
        },
        {
            "name" : "keyboard 1_Material.002_0"
        },
        {
            "mesh" : 1,
            "name" : "keyboard 1_Material.004_0"
        },
        {
            "mesh" : 2,
            "name" : "keyboard 1_Material.006_0"
        },
        {
            "name" : "keyboard 1_Material.007_0"
        },
        {
            "children" : [
                0,
                1,
                2,
                3,
                4
            ],
            "name" : "keyboard 1",
            "rotation" : [
                -0.6400790810585022,
                0.3004974126815796,
                0.300497442483902,
                0.640079140663147
            ],
            "scale" : [
                100,
                100,
                100
            ],
            "translation" : [
                -282.8780517578125,
                -66.3320083618164,
                -142.96170043945312
            ]
        },
        {
            "mesh" : 3,
            "name" : "monitor 1_Material.001_0"
        },
        {
            "mesh" : 4,
            "name" : "monitor 1_Material.002_0"
        },
        {
            "name" : "monitor 1_Material.004_0"
        },
        {
            "mesh" : 5,
            "name" : "monitor 1_Material.006_0"
        },
        {
            "mesh" : 6,
            "name" : "monitor 1_Material.007_0"
        },
        {
            "mesh" : 7,
            "name" : "monitor 1_Material.009_0"
        },
        {
            "children" : [
                6,
                7,
                8,
                9,
                10,
                11
            ],
            "name" : "monitor 1",
            "rotation" : [
                -0.6400790810585022,
                0.3004974126815796,
                0.300497442483902,
                0.640079140663147
            ],
            "scale" : [
                100,
                100,
                100
            ],
            "translation" : [
                -217.0887908935547,
                316.7871398925781,
                -225.17874145507812
            ]
        },
        {
            "children" : [
                5,
                12
            ],
            "name" : "RootNode"
        },
        {
            "children" : [
                13
            ],
            "name" : "8871fa3bf5184f699b89c890e88009a6.fbx",
            "rotation" : [
                0.7071068286895752,
                0,
                0,
                0.7071068286895752
            ]
        },
        {
            "children" : [
                14
            ],
            "name" : "RootNode (model correction matrix)"
        },
        {
            "children" : [
                15
            ],
            "name" : "RootNode (gltf orientation matrix)",
            "rotation" : [
                -0.7071068286895752,
                0,
                0,
                0.7071068286895752
            ]
        },
        {
            "name" : "Light",
            "rotation" : [
                0.16907575726509094,
                0.7558803558349609,
                -0.27217137813568115,
                0.570947527885437
            ],
            "translation" : [
                4.076245307922363,
                5.903861999511719,
                -1.0054539442062378
            ]
        },
        {
            "name" : "Camera",
            "rotation" : [
                0.483536034822464,
                0.33687159419059753,
                -0.20870360732078552,
                0.7804827094078064
            ],
            "translation" : [
                7.358891487121582,
                4.958309173583984,
                6.925790786743164
            ]
        }
    ],
    "materials" : [
        {
            "doubleSided" : true,
            "name" : "Material.001",
            "pbrMetallicRoughness" : {
                "baseColorFactor" : [
                    0.44406700134277344,
                    0.45753300189971924,
                    0.45753300189971924,
                    1
                ],
                "metallicFactor" : 0,
                "roughnessFactor" : 0.823941707611084
            }
        },
        {
            "doubleSided" : true,
            "name" : "Material.004",
            "pbrMetallicRoughness" : {
                "baseColorFactor" : [
                    0.4177370071411133,
                    0.42823201417922974,
                    0.800000011920929,
                    1
                ],
                "metallicFactor" : 0,
                "roughnessFactor" : 0.823941707611084
            }
        },
        {
            "doubleSided" : true,
            "name" : "Material.006",
            "pbrMetallicRoughness" : {
                "baseColorFactor" : [
                    0.08197709918022156,
                    0.10678300261497498,
                    0.19017399847507477,
                    1
                ],
                "metallicFactor" : 0,
                "roughnessFactor" : 0.823941707611084
            }
        },
        {
            "doubleSided" : true,
            "name" : "Material.002",
            "pbrMetallicRoughness" : {
                "baseColorFactor" : [
                    0.800000011920929,
                    0.24090799689292908,
                    0.4416390061378479,
                    1
                ],
                "metallicFactor" : 0,
                "roughnessFactor" : 0.823941707611084
            }
        },
        {
            "doubleSided" : true,
            "name" : "Material.007",
            "pbrMetallicRoughness" : {
                "baseColorFactor" : [
                    0.06616491079330444,
                    0.06353375315666199,
                    0.11387883871793747,
                    1
                ],
                "metallicFactor" : 0,
                "roughnessFactor" : 0.9577051401138306
            }
        },
        {
            "doubleSided" : true,
            "emissiveFactor" : [
                0.5505720973014832,
                1,
                1
            ],
            "name" : "Material.009",
            "pbrMetallicRoughness" : {
                "baseColorFactor" : [
                    0.005427244119346142,
                    0.006168276071548462,
                    0.009615739807486534,
                    1
                ],
                "metallicFactor" : 0,
                "roughnessFactor" : 0.9577051401138306
            }
        }
    ],
    "meshes" : [
        {
            "name" : "keyboard 1_Material.001_0",
            "primitives" : [
                {
                    "attributes" : {
                        "POSITION" : 0,
                        "NORMAL" : 1
                    },
                    "indices" : 2,
                    "material" : 0
                }
            ]
        },
        {
            "name" : "keyboard 1_Material.004_0",
            "primitives" : [
                {
                    "attributes" : {
                        "POSITION" : 3,
                        "NORMAL" : 4
                    },
                    "indices" : 5,
                    "material" : 1
                }
            ]
        },
        {
            "name" : "keyboard 1_Material.006_0",
            "primitives" : [
                {
                    "attributes" : {
                        "POSITION" : 6,
                        "NORMAL" : 7
                    },
                    "indices" : 8,
                    "material" : 2
                }
            ]
        },
        {
            "name" : "monitor 1_Material.001_0",
            "primitives" : [
                {
                    "attributes" : {
                        "POSITION" : 9,
                        "NORMAL" : 10
                    },
                    "indices" : 11,
                    "material" : 0
                }
            ]
        },
        {
            "name" : "monitor 1_Material.002_0",
            "primitives" : [
                {
                    "attributes" : {
                        "POSITION" : 12,
                        "NORMAL" : 13
                    },
                    "indices" : 14,
                    "material" : 3
                }
            ]
        },
        {
            "name" : "monitor 1_Material.006_0",
            "primitives" : [
                {
                    "attributes" : {
                        "POSITION" : 15,
                        "NORMAL" : 16
                    },
                    "indices" : 17,
                    "material" : 2
                }
            ]
        },
        {
            "name" : "monitor 1_Material.007_0",
            "primitives" : [
                {
                    "attributes" : {
                        "POSITION" : 18,
                        "NORMAL" : 19
                    },
                    "indices" : 20,
                    "material" : 4
                }
            ]
        },
        {
            "name" : "monitor 1_Material.009_0",
            "primitives" : [
                {
                    "attributes" : {
                        "POSITION" : 21,
                        "NORMAL" : 22
                    },
                    "indices" : 23,
                    "material" : 5
                }
            ]
        }
    ],
    "accessors" : [
        {
            "bufferView" : 0,
            "componentType" : 5126,
            "count" : 249,
            "max" : [
                2.4285242557525635,
                1.399322271347046,
                0.5391754508018494
            ],
            "min" : [
                -2.4285242557525635,
                -1.3974039554595947,
                -0.5391754508018494
            ],
            "type" : "VEC3"
        },
        {
            "bufferView" : 1,
            "componentType" : 5126,
            "count" : 249,
            "type" : "VEC3"
        },
        {
            "bufferView" : 2,
            "componentType" : 5123,
            "count" : 303,
            "type" : "SCALAR"
        },
        {
            "bufferView" : 3,
            "componentType" : 5126,
            "count" : 49,
            "max" : [
                -0.2512206733226776,
                -0.8199811577796936,
                0.5800633430480957
            ],
            "min" : [
                -0.45052865147590637,
                -1.0501222610473633,
                0.3499222695827484
            ],
            "type" : "VEC3"
        },
        {
            "bufferView" : 4,
            "componentType" : 5126,
            "count" : 49,
            "type" : "VEC3"
        },
        {
            "bufferView" : 5,
            "componentType" : 5123,
            "count" : 60,
            "type" : "SCALAR"
        },
        {
            "bufferView" : 6,
            "componentType" : 5126,
            "count" : 216,
            "max" : [
                2.1207919120788574,
                1.464501142501831,
                0.4085668623447418
            ],
            "min" : [
                -0.09382104873657227,
                -1.4597835540771484,
                -0.24244621396064758
            ],
            "type" : "VEC3"
        },
        {
            "bufferView" : 7,
            "componentType" : 5126,
            "count" : 216,
            "type" : "VEC3"
        },
        {
            "bufferView" : 8,
            "componentType" : 5123,
            "count" : 264,
            "type" : "SCALAR"
        },
        {
            "bufferView" : 9,
            "componentType" : 5126,
            "count" : 323,
            "max" : [
                1.1636159420013428,
                1.9839301109313965,
                1.0338743925094604
            ],
            "min" : [
                -1.1636159420013428,
                -1.4229730367660522,
                -1.2642903327941895
            ],
            "type" : "VEC3"
        },
        {
            "bufferView" : 10,
            "componentType" : 5126,
            "count" : 323,
            "type" : "VEC3"
        },
        {
            "bufferView" : 11,
            "componentType" : 5123,
            "count" : 372,
            "type" : "SCALAR"
        },
        {
            "bufferView" : 12,
            "componentType" : 5126,
            "count" : 50,
            "max" : [
                -1.0303279161453247,
                1.0127545595169067,
                -0.8168314099311829
            ],
            "min" : [
                -1.1119086742401123,
                0.8482134342193604,
                -0.8874823451042175
            ],
            "type" : "VEC3"
        },
        {
            "bufferView" : 13,
            "componentType" : 5126,
            "count" : 50,
            "type" : "VEC3"
        },
        {
            "bufferView" : 14,
            "componentType" : 5123,
            "count" : 60,
            "type" : "SCALAR"
        },
        {
            "bufferView" : 15,
            "componentType" : 5126,
            "count" : 264,
            "max" : [
                1.116413950920105,
                0.7080240845680237,
                0.9826266169548035
            ],
            "min" : [
                -3.0697786808013916,
                -1.4255974292755127,
                -3.3422865867614746
            ],
            "type" : "VEC3"
        },
        {
            "bufferView" : 16,
            "componentType" : 5126,
            "count" : 264,
            "type" : "VEC3"
        },
        {
            "bufferView" : 17,
            "componentType" : 5123,
            "count" : 330,
            "type" : "SCALAR"
        },
        {
            "bufferView" : 18,
            "componentType" : 5126,
            "count" : 93,
            "max" : [
                0.9133877754211426,
                1.0692906379699707,
                0.8129898905754089
            ],
            "min" : [
                -1.1263480186462402,
                -1.2496616840362549,
                -0.9609972834587097
            ],
            "type" : "VEC3"
        },
        {
            "bufferView" : 19,
            "componentType" : 5126,
            "count" : 93,
            "type" : "VEC3"
        },
        {
            "bufferView" : 20,
            "componentType" : 5123,
            "count" : 105,
            "type" : "SCALAR"
        },
        {
            "bufferView" : 21,
            "componentType" : 5126,
            "count" : 4,
            "max" : [
                0.8669351935386658,
                -1.1676232814788818,
                0.7574282884597778
            ],
            "min" : [
                -0.8076190948486328,
                -1.1676232814788818,
                -0.4650149345397949
            ],
            "type" : "VEC3"
        },
        {
            "bufferView" : 22,
            "componentType" : 5126,
            "count" : 4,
            "type" : "VEC3"
        },
        {
            "bufferView" : 23,
            "componentType" : 5123,
            "count" : 6,
            "type" : "SCALAR"
        }
    ],
    "bufferViews" : [
        {
            "buffer" : 0,
            "byteLength" : 2988,
            "byteOffset" : 0
        },
        {
            "buffer" : 0,
            "byteLength" : 2988,
            "byteOffset" : 2988
        },
        {
            "buffer" : 0,
            "byteLength" : 606,
            "byteOffset" : 5976
        },
        {
            "buffer" : 0,
            "byteLength" : 588,
            "byteOffset" : 6584
        },
        {
            "buffer" : 0,
            "byteLength" : 588,
            "byteOffset" : 7172
        },
        {
            "buffer" : 0,
            "byteLength" : 120,
            "byteOffset" : 7760
        },
        {
            "buffer" : 0,
            "byteLength" : 2592,
            "byteOffset" : 7880
        },
        {
            "buffer" : 0,
            "byteLength" : 2592,
            "byteOffset" : 10472
        },
        {
            "buffer" : 0,
            "byteLength" : 528,
            "byteOffset" : 13064
        },
        {
            "buffer" : 0,
            "byteLength" : 3876,
            "byteOffset" : 13592
        },
        {
            "buffer" : 0,
            "byteLength" : 3876,
            "byteOffset" : 17468
        },
        {
            "buffer" : 0,
            "byteLength" : 744,
            "byteOffset" : 21344
        },
        {
            "buffer" : 0,
            "byteLength" : 600,
            "byteOffset" : 22088
        },
        {
            "buffer" : 0,
            "byteLength" : 600,
            "byteOffset" : 22688
        },
        {
            "buffer" : 0,
            "byteLength" : 120,
            "byteOffset" : 23288
        },
        {
            "buffer" : 0,
            "byteLength" : 3168,
            "byteOffset" : 23408
        },
        {
            "buffer" : 0,
            "byteLength" : 3168,
            "byteOffset" : 26576
        },
        {
            "buffer" : 0,
            "byteLength" : 660,
            "byteOffset" : 29744
        },
        {
            "buffer" : 0,
            "byteLength" : 1116,
            "byteOffset" : 30404
        },
        {
            "buffer" : 0,
            "byteLength" : 1116,
            "byteOffset" : 31520
        },
        {
            "buffer" : 0,
            "byteLength" : 210,
            "byteOffset" : 32636
        },
        {
            "buffer" : 0,
            "byteLength" : 48,
            "byteOffset" : 32848
        },
        {
            "buffer" : 0,
            "byteLength" : 48,
            "byteOffset" : 32896
        },
        {
            "buffer" : 0,
            "byteLength" : 12,
            "byteOffset" : 32944
        }
    ],
    "buffers" : [
        {
            "byteLength" : 32956,
            "uri" : "data:application/octet-stream;base64,"
        }
    ]
}
