{
  "accessors": [
    {
      "bufferView": 2,
      "componentType": 5126,
      "count": 3772,
      "max": [
        1.2348564863204956,
        1.399245023727417,
        2.388503074645996
      ],
      "min": [
        -2.357844591140747,
        -1.3992455005645752,
        -1.2770624160766602
      ],
      "type": "VEC3"
    },
    {
      "bufferView": 2,
      "byteOffset": 45264,
      "componentType": 5126,
      "count": 3772,
      "max": [
        0.9999821186065674,
        1.0,
        0.9999949932098389
      ],
      "min": [
        -0.9999704360961914,
        -1.0,
        -0.999746561050415
      ],
      "type": "VEC3"
    },
    {
      "bufferView": 1,
      "componentType": 5126,
      "count": 3772,
      "max": [
        1.0,
        1.0
      ],
      "min": [
        0.0,
        0.0
      ],
      "type": "VEC2"
    },
    {
      "bufferView": 0,
      "componentType": 5125,
      "count": 12423,
      "type": "SCALAR"
    },
    {
      "bufferView": 2,
      "byteOffset": 90528,
      "componentType": 5126,
      "count": 2927,
      "max": [
        2.373293161392212,
        1.2626582384109497,
        1.280111312866211
      ],
      "min": [
        -1.2194082736968994,
        -1.2626572847366333,
        -2.385453939437866
      ],
      "type": "VEC3"
    },
    {
      "bufferView": 2,
      "byteOffset": 125652,
      "componentType": 5126,
      "count": 2927,
      "max": [
        0.9996171593666077,
        1.0,
        0.99952232837677
      ],
      "min": [
        -0.9999821186065674,
        -1.0,
        -0.9994986057281494
      ],
      "type": "VEC3"
    },
    {
      "bufferView": 1,
      "byteOffset": 30176,
      "componentType": 5126,
      "count": 2927,
      "max": [
        1.0,
        1.0
      ],
      "min": [
        0.0,
        0.0
      ],
      "type": "VEC2"
    },
    {
      "bufferView": 0,
      "byteOffset": 49692,
      "componentType": 5125,
      "count": 9690,
      "type": "SCALAR"
    },
    {
      "bufferView": 3,
      "componentType": 5126,
      "count": 498,
      "max": [
        9.960000038146973
      ],
      "min": [
        0.0
      ],
      "type": "SCALAR"
    },
    {
      "bufferView": 4,
      "componentType": 5126,
      "count": 498,
      "max": [
        0.49947401881217957,
        0.7071005702018738,
        0.498420387506485,
        0.7071067690849304
      ],
      "min": [
        -0.7071067690849304,
        -0.498420387506485,
        -0.707100510597229,
        -0.49947401881217957
      ],
      "type": "VEC4"
    }
  ],
  "animations": [
    {
      "channels": [
        {
          "sampler": 0,
          "target": {
            "node": 4,
            "path": "rotation"
          }
        }
      ],
      "name": "Sun_and_Moon_Stones|Cube.001Action",
      "samplers": [
        {
          "input": 8,
          "interpolation": "LINEAR",
          "output": 9
        }
      ]
    }
  ],
  "asset": {
    "extras": {
      "author": "Citron_Legacy (https://sketchfab.com/Citron_Legacy)",
      "license": "CC-BY-4.0 (http://creativecommons.org/licenses/by/4.0/)",
      "source": "https://sketchfab.com/3d-models/afk-arena-sunstone-and-moonstone-728cd92b16a842a681f723f3c27ce796",
      "title": "AFK Arena Sunstone and Moonstone"
    },
    "generator": "Sketchfab-11.13.0",
    "version": "2.0"
  },
  "bufferViews": [
    {
      "buffer": 0,
      "byteLength": 88452,
      "name": "floatBufferViews",
      "target": 34963
    },
    {
      "buffer": 0,
      "byteLength": 53592,
      "byteOffset": 88452,
      "byteStride": 8,
      "name": "floatBufferViews",
      "target": 34962
    },
    {
      "buffer": 0,
      "byteLength": 160776,
      "byteOffset": 142044,
      "byteStride": 12,
      "name": "floatBufferViews",
      "target": 34962
    },
    {
      "buffer": 0,
      "byteLength": 1992,
      "byteOffset": 302820,
      "name": "floatBufferViews"
    },
    {
      "buffer": 0,
      "byteLength": 7968,
      "byteOffset": 304812,
      "byteStride": 16,
      "name": "floatBufferViews"
    }
  ],
  "buffers": [
    {
      "byteLength": 312780,
      "uri": "scene.bin"
    }
  ],
  "images": [
    {
      "uri": "textures/Sunstone_baseColor.png"
    },
    {
      "uri": "textures/Sunstone_metallicRoughness.png"
    },
    {
      "uri": "textures/Moonstone_baseColor.png"
    },
    {
      "uri": "textures/Moonstone_metallicRoughness.png"
    }
  ],
  "materials": [
    {
      "alphaMode": "BLEND",
      "doubleSided": true,
      "name": "Sunstone",
      "pbrMetallicRoughness": {
        "baseColorTexture": {
          "index": 0
        },
        "metallicRoughnessTexture": {
          "index": 1
        },
        "roughnessFactor": 0.8040408205773457
      }
    },
    {
      "alphaMode": "BLEND",
      "doubleSided": true,
      "name": "Moonstone",
      "pbrMetallicRoughness": {
        "baseColorTexture": {
          "index": 2
        },
        "metallicRoughnessTexture": {
          "index": 3
        },
        "roughnessFactor": 0.8040408205773457
      }
    }
  ],
  "meshes": [
    {
      "name": "Sun_and_Moon_Stones_Sunstone_0",
      "primitives": [
        {
          "attributes": {
            "NORMAL": 1,
            "POSITION": 0,
            "TEXCOORD_0": 2
          },
          "indices": 3,
          "material": 0,
          "mode": 4
        }
      ]
    },
    {
      "name": "Sun_and_Moon_Stones_Moonstone_0",
      "primitives": [
        {
          "attributes": {
            "NORMAL": 5,
            "POSITION": 4,
            "TEXCOORD_0": 6
          },
          "indices": 7,
          "material": 1,
          "mode": 4
        }
      ]
    }
  ],
  "nodes": [
    {
      "children": [
        1
      ],
      "matrix": [
        1.0,
        0.0,
        0.0,
        0.0,
        0.0,
        2.220446049250313e-16,
        -1.0,
        0.0,
        0.0,
        1.0,
        2.220446049250313e-16,
        0.0,
        0.0,
        0.0,
        0.0,
        1.0
      ],
      "name": "Sketchfab_model"
    },
    {
      "children": [
        2
      ],
      "matrix": [
        1.0,
        0.0,
        0.0,
        0.0,
        0.0,
        0.0,
        1.0,
        0.0,
        0.0,
        -1.0,
        0.0,
        0.0,
        0.0,
        0.0,
        0.0,
        1.0
      ],
      "name": "8d60d8cb058f4f23bcb45e2f27be35f2.fbx"
    },
    {
      "children": [
        3
      ],
      "name": "Object_2"
    },
    {
      "children": [
        4
      ],
      "name": "RootNode"
    },
    {
      "children": [
        5,
        6
      ],
      "name": "Sun_and_Moon_Stones",
      "rotation": [
        0.34579920768737793,
        0.6167843341827393,
        -0.6167843341827393,
        -0.34579920768737793
      ],
      "scale": [
        110.20286560058594,
        23.49894142150879,
        110.20286560058594
      ],
      "translation": [
        3.471329689025879,
        -4.250931739807129,
        -5.964111551293172e-06
      ]
    },
    {
      "mesh": 0,
      "name": "Sun_and_Moon_Stones_Sunstone_0"
    },
    {
      "mesh": 1,
      "name": "Sun_and_Moon_Stones_Moonstone_0"
    }
  ],
  "samplers": [
    {
      "magFilter": 9729,
      "minFilter": 9987,
      "wrapS": 10497,
      "wrapT": 10497
    }
  ],
  "scene": 0,
  "scenes": [
    {
      "name": "Sketchfab_Scene",
      "nodes": [
        0
      ]
    }
  ],
  "textures": [
    {
      "sampler": 0,
      "source": 0
    },
    {
      "sampler": 0,
      "source": 1
    },
    {
      "sampler": 0,
      "source": 2
    },
    {
      "sampler": 0,
      "source": 3
    }
  ]
}
