{
  "accessors": [
    {
      "bufferView": 3,
      "componentType": 5126,
      "count": 680,
      "max": [
        13.445026397705078,
        2.3196306228637695,
        3.8971896171569824
      ],
      "min": [
        -13.47274112701416,
        -0.9069493412971497,
        -6.732618808746338
      ],
      "type": "VEC3"
    },
    {
      "bufferView": 3,
      "byteOffset": 8160,
      "componentType": 5126,
      "count": 680,
      "max": [
        0.9896422028541565,
        0.9923384189605713,
        1.0
      ],
      "min": [
        -0.9899991154670715,
        -0.9999992251396179,
        -1.0
      ],
      "type": "VEC3"
    },
    {
      "bufferView": 2,
      "componentType": 5126,
      "count": 680,
      "max": [
        1.0,
        1.0000001192092896
      ],
      "min": [
        -1.7881393432617188e-07,
        0.4999999403953552
      ],
      "type": "VEC2"
    },
    {
      "bufferView": 1,
      "componentType": 5125,
      "count": 1020,
      "type": "SCALAR"
    },
    {
      "bufferView": 3,
      "byteOffset": 16320,
      "componentType": 5126,
      "count": 166,
      "max": [
        14.67922592163086,
        1.3929858207702637,
        5.923695087432861
      ],
      "min": [
        -14.707834243774414,
        0.5071386098861694,
        -6.125784397125244
      ],
      "type": "VEC3"
    },
    {
      "bufferView": 3,
      "byteOffset": 18312,
      "componentType": 5126,
      "count": 166,
      "max": [
        0.7083994150161743,
        0.9942710995674133,
        0.9808706641197205
      ],
      "min": [
        -0.7101860046386719,
        -0.9946054816246033,
        -0.37310799956321716
      ],
      "type": "VEC3"
    },
    {
      "bufferView": 2,
      "byteOffset": 5440,
      "componentType": 5126,
      "count": 166,
      "max": [
        1.0,
        1.0000001192092896
      ],
      "min": [
        -1.7881393432617188e-07,
        0.019721686840057373
      ],
      "type": "VEC2"
    },
    {
      "bufferView": 1,
      "byteOffset": 4080,
      "componentType": 5125,
      "count": 264,
      "type": "SCALAR"
    },
    {
      "bufferView": 3,
      "byteOffset": 20304,
      "componentType": 5126,
      "count": 224,
      "max": [
        0.9729939103126526,
        1.0162341594696045,
        2.671152114868164
      ],
      "min": [
        -0.8481693863868713,
        -1.628269910812378,
        -7.372448444366455
      ],
      "type": "VEC3"
    },
    {
      "bufferView": 3,
      "byteOffset": 22992,
      "componentType": 5126,
      "count": 224,
      "max": [
        0.9999992847442627,
        0.99737948179245,
        0.8974217772483826
      ],
      "min": [
        -0.9999992847442627,
        -0.9998611211776733,
        -0.957451343536377
      ],
      "type": "VEC3"
    },
    {
      "bufferView": 2,
      "byteOffset": 6768,
      "componentType": 5126,
      "count": 224,
      "max": [
        1.0,
        1.0
      ],
      "min": [
        -1.7881393432617188e-07,
        0.4999999701976776
      ],
      "type": "VEC2"
    },
    {
      "bufferView": 1,
      "byteOffset": 5136,
      "componentType": 5125,
      "count": 336,
      "type": "SCALAR"
    },
    {
      "bufferView": 3,
      "byteOffset": 25680,
      "componentType": 5126,
      "count": 73,
      "max": [
        0.24378442764282227,
        0.7414274215698242,
        -7.372448444366455
      ],
      "min": [
        -0.243692547082901,
        0.265459269285202,
        -7.686623573303223
      ],
      "type": "VEC3"
    },
    {
      "bufferView": 3,
      "byteOffset": 26556,
      "componentType": 5126,
      "count": 73,
      "max": [
        0.7865599393844604,
        0.7821683287620544,
        -0.5011196136474609
      ],
      "min": [
        -0.7881697416305542,
        -0.8653759956359863,
        -0.6258512735366821
      ],
      "type": "VEC3"
    },
    {
      "bufferView": 2,
      "byteOffset": 8560,
      "componentType": 5126,
      "count": 73,
      "max": [
        1.0,
        0.5000000596046448
      ],
      "min": [
        -1.7881393432617188e-07,
        0.019721686840057373
      ],
      "type": "VEC2"
    },
    {
      "bufferView": 1,
      "byteOffset": 6480,
      "componentType": 5125,
      "count": 120,
      "type": "SCALAR"
    },
    {
      "bufferView": 5,
      "componentType": 5126,
      "count": 7,
      "max": [
        1.0,
        0.9863942861557007,
        0.2111053466796875,
        0.0,
        3.814376725586044e-07,
        1.0,
        1.0000001192092896,
        0.0,
        0.0,
        1.0000001192092896,
        1.0,
        0.0,
        0.8433254361152649,
        0.0,
        3.2802200317382813,
        1.0
      ],
      "min": [
        -3.1391647326017846e-07,
        -0.986393928527832,
        -1.0,
        0.0,
        -1.0000001192092896,
        -0.16439896821975708,
        -0.9863940477371216,
        0.0,
        -1.0000001192092896,
        -1.0000001192092896,
        -1.7060270351976214e-07,
        0.0,
        -1.1942822933197021,
        -7.406075954437256,
        -3.284531354904175,
        1.0
      ],
      "type": "MAT4"
    },
    {
      "bufferView": 0,
      "componentType": 5123,
      "count": 680,
      "type": "VEC4"
    },
    {
      "bufferView": 4,
      "componentType": 5126,
      "count": 680,
      "max": [
        1.0,
        0.49944332242012024,
        0.268523246049881,
        0.10167858749628067
      ],
      "min": [
        0.41691136360168457,
        0.0,
        0.0,
        0.0
      ],
      "type": "VEC4"
    },
    {
      "bufferView": 0,
      "byteOffset": 5440,
      "componentType": 5123,
      "count": 166,
      "type": "VEC4"
    },
    {
      "bufferView": 4,
      "byteOffset": 10880,
      "componentType": 5126,
      "count": 166,
      "max": [
        1.0,
        0.03681976720690727,
        0.0,
        0.0
      ],
      "min": [
        0.9631802439689636,
        0.0,
        0.0,
        0.0
      ],
      "type": "VEC4"
    },
    {
      "bufferView": 0,
      "byteOffset": 6768,
      "componentType": 5123,
      "count": 224,
      "type": "VEC4"
    },
    {
      "bufferView": 4,
      "byteOffset": 13536,
      "componentType": 5126,
      "count": 224,
      "max": [
        1.0,
        0.13308195769786835,
        0.12475297600030899,
        0.06111094355583191
      ],
      "min": [
        0.6973139643669128,
        0.0,
        0.0,
        0.0
      ],
      "type": "VEC4"
    },
    {
      "bufferView": 0,
      "byteOffset": 8560,
      "componentType": 5123,
      "count": 73,
      "type": "VEC4"
    },
    {
      "bufferView": 4,
      "byteOffset": 17120,
      "componentType": 5126,
      "count": 73,
      "max": [
        1.0,
        7.006492321624085e-45,
        4.273960316190692e-43,
        9.80908925027372e-45
      ],
      "min": [
        0.0,
        0.0,
        0.0,
        0.0
      ],
      "type": "VEC4"
    },
    {
      "bufferView": 6,
      "componentType": 5126,
      "count": 40,
      "max": [
        0.6666666865348816
      ],
      "min": [
        0.01666666753590107
      ],
      "type": "SCALAR"
    },
    {
      "bufferView": 8,
      "componentType": 5126,
      "count": 40,
      "max": [
        0.2830169200897217,
        0.2830166518688202,
        0.7070688009262085,
        0.7070687413215637
      ],
      "min": [
        -0.13984254002571106,
        -0.13984280824661255,
        0.647998034954071,
        0.6479980945587158
      ],
      "type": "VEC4"
    },
    {
      "bufferView": 6,
      "byteOffset": 160,
      "componentType": 5126,
      "count": 21,
      "max": [
        0.6666666865348816
      ],
      "min": [
        0.01666666753590107
      ],
      "type": "SCALAR"
    },
    {
      "bufferView": 7,
      "componentType": 5126,
      "count": 21,
      "max": [
        1.0,
        1.0000001192092896,
        1.0000001192092896
      ],
      "min": [
        1.0,
        1.0,
        1.0
      ],
      "type": "VEC3"
    },
    {
      "bufferView": 6,
      "byteOffset": 244,
      "componentType": 5126,
      "count": 40,
      "max": [
        0.6666666865348816
      ],
      "min": [
        0.01666666753590107
      ],
      "type": "SCALAR"
    },
    {
      "bufferView": 7,
      "byteOffset": 252,
      "componentType": 5126,
      "count": 40,
      "max": [
        2.396458587128336e-10,
        6.9741997718811035,
        5.185934242035728e-07
      ],
      "min": [
        -2.2603785510000307e-10,
        6.974198818206787,
        -1.4620701449530316e-07
      ],
      "type": "VEC3"
    },
    {
      "bufferView": 6,
      "byteOffset": 404,
      "componentType": 5126,
      "count": 40,
      "max": [
        0.6666666865348816
      ],
      "min": [
        0.01666666753590107
      ],
      "type": "SCALAR"
    },
    {
      "bufferView": 8,
      "byteOffset": 640,
      "componentType": 5126,
      "count": 40,
      "max": [
        -0.18780525028705597,
        -3.7935858898663355e-08,
        3.119794200756587e-08,
        0.9822062849998474
      ],
      "min": [
        -0.18780528008937836,
        -3.79359015312275e-08,
        3.119792424399748e-08,
        0.9822062849998474
      ],
      "type": "VEC4"
    },
    {
      "bufferView": 6,
      "byteOffset": 564,
      "componentType": 5126,
      "count": 39,
      "max": [
        0.6666666865348816
      ],
      "min": [
        0.01666666753590107
      ],
      "type": "SCALAR"
    },
    {
      "bufferView": 7,
      "byteOffset": 732,
      "componentType": 5126,
      "count": 39,
      "max": [
        1.0,
        1.0,
        1.0000001192092896
      ],
      "min": [
        0.9999999403953552,
        0.9999998211860657,
        0.9999998807907104
      ],
      "type": "VEC3"
    },
    {
      "bufferView": 6,
      "byteOffset": 720,
      "componentType": 5126,
      "count": 40,
      "max": [
        0.6666666865348816
      ],
      "min": [
        0.01666666753590107
      ],
      "type": "SCALAR"
    },
    {
      "bufferView": 8,
      "byteOffset": 1280,
      "componentType": 5126,
      "count": 40,
      "max": [
        0.7070688605308533,
        0.7070686221122742,
        0.28301680088043213,
        0.28301694989204407
      ],
      "min": [
        -0.7068789005279541,
        -0.7068762183189392,
        0.007334703113883734,
        0.007335125934332609
      ],
      "type": "VEC4"
    },
    {
      "bufferView": 6,
      "byteOffset": 880,
      "componentType": 5126,
      "count": 25,
      "max": [
        0.6666666865348816
      ],
      "min": [
        0.01666666753590107
      ],
      "type": "SCALAR"
    },
    {
      "bufferView": 7,
      "byteOffset": 1200,
      "componentType": 5126,
      "count": 25,
      "max": [
        1.0,
        0.9999997019767761,
        1.0000001192092896
      ],
      "min": [
        1.0,
        0.9999995827674866,
        1.0
      ],
      "type": "VEC3"
    },
    {
      "bufferView": 6,
      "byteOffset": 980,
      "componentType": 5126,
      "count": 40,
      "max": [
        0.6666666865348816
      ],
      "min": [
        0.01666666753590107
      ],
      "type": "SCALAR"
    },
    {
      "bufferView": 7,
      "byteOffset": 1500,
      "componentType": 5126,
      "count": 40,
      "max": [
        2.523018738376237e-10,
        6.9742021560668945,
        5.158227054380404e-07
      ],
      "min": [
        -2.1378809833549894e-10,
        6.97420072555542,
        -5.464960395329399e-07
      ],
      "type": "VEC3"
    },
    {
      "bufferView": 6,
      "byteOffset": 1140,
      "componentType": 5126,
      "count": 28,
      "max": [
        0.6666666865348816
      ],
      "min": [
        0.01666666753590107
      ],
      "type": "SCALAR"
    },
    {
      "bufferView": 8,
      "byteOffset": 1920,
      "componentType": 5126,
      "count": 28,
      "max": [
        0.18780517578125,
        3.043329002139217e-07,
        -1.176128847646396e-07,
        0.9822063446044922
      ],
      "min": [
        0.1878051459789276,
        3.043329002139217e-07,
        -1.1761289897549432e-07,
        0.9822063446044922
      ],
      "type": "VEC4"
    },
    {
      "bufferView": 6,
      "byteOffset": 1252,
      "componentType": 5126,
      "count": 25,
      "max": [
        0.6666666865348816
      ],
      "min": [
        0.01666666753590107
      ],
      "type": "SCALAR"
    },
    {
      "bufferView": 7,
      "byteOffset": 1980,
      "componentType": 5126,
      "count": 25,
      "max": [
        1.0000001192092896,
        1.0000001192092896,
        1.0000001192092896
      ],
      "min": [
        0.9999998807907104,
        1.0,
        1.0
      ],
      "type": "VEC3"
    },
    {
      "bufferView": 6,
      "byteOffset": 1352,
      "componentType": 5126,
      "count": 40,
      "max": [
        0.6666666865348816
      ],
      "min": [
        0.01666666753590107
      ],
      "type": "SCALAR"
    },
    {
      "bufferView": 7,
      "byteOffset": 2280,
      "componentType": 5126,
      "count": 40,
      "max": [
        0.0,
        0.550000011920929,
        -1.1962352991104126
      ],
      "min": [
        0.0,
        0.0,
        -1.1962352991104126
      ],
      "type": "VEC3"
    }
  ],
  "animations": [
    {
      "channels": [
        {
          "sampler": 0,
          "target": {
            "node": 13,
            "path": "rotation"
          }
        },
        {
          "sampler": 1,
          "target": {
            "node": 13,
            "path": "scale"
          }
        },
        {
          "sampler": 2,
          "target": {
            "node": 14,
            "path": "translation"
          }
        },
        {
          "sampler": 3,
          "target": {
            "node": 14,
            "path": "rotation"
          }
        },
        {
          "sampler": 4,
          "target": {
            "node": 14,
            "path": "scale"
          }
        },
        {
          "sampler": 5,
          "target": {
            "node": 15,
            "path": "rotation"
          }
        },
        {
          "sampler": 6,
          "target": {
            "node": 15,
            "path": "scale"
          }
        },
        {
          "sampler": 7,
          "target": {
            "node": 16,
            "path": "translation"
          }
        },
        {
          "sampler": 8,
          "target": {
            "node": 16,
            "path": "rotation"
          }
        },
        {
          "sampler": 9,
          "target": {
            "node": 16,
            "path": "scale"
          }
        },
        {
          "sampler": 10,
          "target": {
            "node": 3,
            "path": "translation"
          }
        }
      ],
      "name": "ArmatureAction",
      "samplers": [
        {
          "input": 25,
          "interpolation": "LINEAR",
          "output": 26
        },
        {
          "input": 27,
          "interpolation": "LINEAR",
          "output": 28
        },
        {
          "input": 29,
          "interpolation": "LINEAR",
          "output": 30
        },
        {
          "input": 31,
          "interpolation": "LINEAR",
          "output": 32
        },
        {
          "input": 33,
          "interpolation": "LINEAR",
          "output": 34
        },
        {
          "input": 35,
          "interpolation": "LINEAR",
          "output": 36
        },
        {
          "input": 37,
          "interpolation": "LINEAR",
          "output": 38
        },
        {
          "input": 39,
          "interpolation": "LINEAR",
          "output": 40
        },
        {
          "input": 41,
          "interpolation": "LINEAR",
          "output": 42
        },
        {
          "input": 43,
          "interpolation": "LINEAR",
          "output": 44
        },
        {
          "input": 45,
          "interpolation": "LINEAR",
          "output": 46
        }
      ]
    }
  ],
  "asset": {
    "extras": {
      "author": "simonaskLDE (https://sketchfab.com/simonaskLDE)",
      "license": "CC-BY-4.0 (http://creativecommons.org/licenses/by/4.0/)",
      "source": "https://sketchfab.com/3d-models/low-poly-seagull-with-animation-rigged-985024328902444c8270c0f09acc897e",
      "title": "Low-Poly Seagull (with Animation & Rigged)"
    },
    "generator": "Sketchfab-12.15.0",
    "version": "2.0"
  },
  "bufferViews": [
    {
      "buffer": 0,
      "byteLength": 9144,
      "byteStride": 8,
      "name": "shortBufferViews",
      "target": 34962
    },
    {
      "buffer": 0,
      "byteLength": 6960,
      "byteOffset": 9144,
      "name": "floatBufferViews",
      "target": 34963
    },
    {
      "buffer": 0,
      "byteLength": 9144,
      "byteOffset": 16104,
      "byteStride": 8,
      "name": "floatBufferViews",
      "target": 34962
    },
    {
      "buffer": 0,
      "byteLength": 27432,
      "byteOffset": 25248,
      "byteStride": 12,
      "name": "floatBufferViews",
      "target": 34962
    },
    {
      "buffer": 0,
      "byteLength": 18288,
      "byteOffset": 52680,
      "byteStride": 16,
      "name": "floatBufferViews",
      "target": 34962
    },
    {
      "buffer": 0,
      "byteLength": 448,
      "byteOffset": 70968,
      "name": "floatBufferViews"
    },
    {
      "buffer": 0,
      "byteLength": 1512,
      "byteOffset": 71416,
      "name": "floatBufferViews"
    },
    {
      "buffer": 0,
      "byteLength": 2760,
      "byteOffset": 72928,
      "byteStride": 12,
      "name": "floatBufferViews"
    },
    {
      "buffer": 0,
      "byteLength": 2368,
      "byteOffset": 75688,
      "byteStride": 16,
      "name": "floatBufferViews"
    }
  ],
  "buffers": [
    {
      "byteLength": 78056,
      "uri": "scene.bin"
    }
  ],
  "materials": [
    {
      "doubleSided": true,
      "name": "Seagull_Base_Material",
      "pbrMetallicRoughness": {
        "metallicFactor": 0.0,
        "roughnessFactor": 0.5
      }
    },
    {
      "doubleSided": true,
      "name": "Seagul_DarkEyeTail",
      "pbrMetallicRoughness": {
        "baseColorFactor": [
          0.0086896,
          0.00941803,
          0.0100216,
          1.0
        ],
        "metallicFactor": 0.0,
        "roughnessFactor": 0.7738932167965039
      }
    },
    {
      "doubleSided": true,
      "name": "Seagull_Yellow",
      "pbrMetallicRoughness": {
        "baseColorFactor": [
          0.8,
          0.639403,
          0.0169133,
          1.0
        ],
        "metallicFactor": 0.0,
        "roughnessFactor": 0.5
      }
    },
    {
      "doubleSided": true,
      "name": "Seagull_Red",
      "pbrMetallicRoughness": {
        "baseColorFactor": [
          0.8,
          0.000929004,
          0.00182224,
          1.0
        ],
        "metallicFactor": 0.0,
        "roughnessFactor": 0.5
      }
    }
  ],
  "meshes": [
    {
      "name": "Object_0",
      "primitives": [
        {
          "attributes": {
            "JOINTS_0": 17,
            "NORMAL": 1,
            "POSITION": 0,
            "TEXCOORD_0": 2,
            "WEIGHTS_0": 18
          },
          "indices": 3,
          "material": 0,
          "mode": 4
        }
      ]
    },
    {
      "name": "Object_1",
      "primitives": [
        {
          "attributes": {
            "JOINTS_0": 19,
            "NORMAL": 5,
            "POSITION": 4,
            "TEXCOORD_0": 6,
            "WEIGHTS_0": 20
          },
          "indices": 7,
          "material": 1,
          "mode": 4
        }
      ]
    },
    {
      "name": "Object_2",
      "primitives": [
        {
          "attributes": {
            "JOINTS_0": 21,
            "NORMAL": 9,
            "POSITION": 8,
            "TEXCOORD_0": 10,
            "WEIGHTS_0": 22
          },
          "indices": 11,
          "material": 2,
          "mode": 4
        }
      ]
    },
    {
      "name": "Object_3",
      "primitives": [
        {
          "attributes": {
            "JOINTS_0": 23,
            "NORMAL": 13,
            "POSITION": 12,
            "TEXCOORD_0": 14,
            "WEIGHTS_0": 24
          },
          "indices": 15,
          "material": 3,
          "mode": 4
        }
      ]
    }
  ],
  "nodes": [
    {
      "children": [
        1
      ],
      "matrix": [
        -1.0,
        -6.290011496532519e-32,
        2.832769343193999e-16,
        0.0,
        2.832769343193999e-16,
        -2.220446049250313e-16,
        1.0,
        0.0,
        0.0,
        1.0,
        2.220446049250313e-16,
        0.0,
        -0.01952509395778179,
        1.3328320181908552e-15,
        -2.0025417804718018,
        1.0
      ],
      "name": "Sketchfab_model"
    },
    {
      "children": [
        2
      ],
      "name": "root"
    },
    {
      "children": [
        3
      ],
      "matrix": [
        1.0,
        0.0,
        0.0,
        0.0,
        0.0,
        2.220446049250313e-16,
        1.0,
        0.0,
        0.0,
        -1.0,
        2.220446049250313e-16,
        0.0,
        0.0,
        0.0,
        0.0,
        1.0
      ],
      "name": "GLTF_SceneRootNode"
    },
    {
      "children": [
        4
      ],
      "name": "Armature_7",
      "rotation": [
        -0.7071068286895752,
        0.0,
        0.0,
        0.7071068286895752
      ],
      "translation": [
        0.0,
        0.550000011920929,
        -1.1962352991104126
      ]
    },
    {
      "children": [
        5,
        7,
        8,
        9,
        10,
        6
      ],
      "name": "GLTF_created_0"
    },
    {
      "children": [
        11
      ],
      "name": "GLTF_created_0_rootJoint"
    },
    {
      "name": "Segull_6"
    },
    {
      "mesh": 0,
      "name": "Object_7",
      "skin": 0
    },
    {
      "mesh": 1,
      "name": "Object_8",
      "skin": 0
    },
    {
      "mesh": 2,
      "name": "Object_9",
      "skin": 0
    },
    {
      "mesh": 3,
      "name": "Object_10",
      "skin": 0
    },
    {
      "children": [
        12,
        13,
        15
      ],
      "name": "root_5",
      "rotation": [
        -5.752929688185304e-09,
        0.0,
        0.0,
        1.0
      ],
      "scale": [
        1.0,
        0.9999998807907104,
        0.9999998807907104
      ],
      "translation": [
        0.0,
        0.23046956956386566,
        1.0074144185523437e-08
      ]
    },
    {
      "name": "tail_0",
      "rotation": [
        -0.7071066498756409,
        -1.1835211211064234e-07,
        0.70710688829422,
        1.314084308035035e-08
      ],
      "scale": [
        0.9999999403953552,
        0.9999999403953552,
        1.0
      ],
      "translation": [
        -2.684127196062036e-07,
        -4.021047592163086,
        0.29332488775253296
      ]
    },
    {
      "children": [
        14
      ],
      "name": "wing1.l_2",
      "rotation": [
        -0.13984254002571106,
        -0.13984280824661255,
        0.6931408047676086,
        0.6931406855583191
      ],
      "scale": [
        1.0,
        1.0000001192092896,
        1.0000001192092896
      ],
      "translation": [
        -1.028256893157959,
        -0.2324237823486328,
        -1.6544987602173933e-09
      ]
    },
    {
      "name": "wing2.l_1",
      "rotation": [
        -0.18780526518821716,
        -3.793588021494543e-08,
        3.119792424399748e-08,
        0.9822062849998474
      ],
      "scale": [
        0.9999999403953552,
        0.9999998211860657,
        0.9999998807907104
      ],
      "translation": [
        6.835778471048215e-12,
        6.974198818206787,
        2.9711095805851073e-08
      ]
    },
    {
      "children": [
        16
      ],
      "name": "wing1.r_4",
      "rotation": [
        -0.693140983581543,
        -0.6931403875350952,
        0.13984303176403046,
        0.1398427039384842
      ],
      "scale": [
        1.0,
        0.9999998807907104,
        0.9999999403953552
      ],
      "translation": [
        1.0020356178283691,
        -0.2324228286743164,
        -1.5691059562783494e-09
      ]
    },
    {
      "name": "wing2.r_3",
      "rotation": [
        0.18780517578125,
        3.043329002139217e-07,
        -1.176128847646396e-07,
        0.9822063446044922
      ],
      "translation": [
        2.5216986831999577e-10,
        6.974201679229736,
        2.9422253078337235e-07
      ]
    }
  ],
  "scene": 0,
  "scenes": [
    {
      "name": "Sketchfab_Scene",
      "nodes": [
        0
      ]
    }
  ],
  "skins": [
    {
      "inverseBindMatrices": 16,
      "joints": [
        5,
        11,
        12,
        13,
        14,
        15,
        16
      ],
      "skeleton": 5
    }
  ]
}
